<mxfile host="app.diagrams.net" modified="2023-08-27T04:01:25.560Z" agent="Mozilla/5.0 (Macintosh; Intel Mac OS X 10_15_7) AppleWebKit/537.36 (KHTML, like Gecko) Chrome/115.0.0.0 Safari/537.36" version="21.5.0" etag="b8F0DGXXXvw9MImk71Uw" type="github">
  <diagram name="第 1 页" id="1-ibpuYYxeppUr7ptc3r">
    <mxGraphModel>
      <root>
        <mxCell id="0" />
        <mxCell id="1" parent="0" />
      </root>
    </mxGraphModel>
  </diagram>
</mxfile>
